.
..............................Site Info...........................

 -   http://www.scenetime.com  *_*    

Scenetime .Always on time . friendly online private torrent community ..

     We care to share . Join us on  http://www.scenetime.com 

    Be the first to get new release at  http://www.scenetime.com

        Seed back for speed


...................................NFO:.................................................DiSTURBED Proudly Presents...

[img]http://img109.imageshack.us/img109/3375/battleship2012moviepost.jpg[/img]

[b]Battleship (2012) BDRip XviD AC3-DiSTRUBED[/b]

Source                           : [b]EXViD[/b] (Thanks)

Format                           : AVI
Format/Info                      : Audio Video Interleave
File size                        : 1.36 GiB
Duration                         : 2h 11mn
Overall bit rate                 : 1 483 Kbps

Video
ID                               : 0
Format                           : MPEG-4 Visual
Format profile                   : Advanced Simple@L5
Format settings, BVOP            : 2
Format settings, QPel            : No
Format settings, GMC             : No warppoints
Format settings, Matrix          : Default (H.263)
Muxing mode                      : Packed bitstream
Codec ID                         : XVID
Codec ID/Hint                    : XviD
Duration                         : 2h 11mn
Bit rate                         : 1 026 Kbps
Width                            : 640 pixels
Height                           : 272 pixels
Display aspect ratio             : 2.35:1
Frame rate                       : 23.976 fps
Color space                      : YUV
Chroma subsampling               : 4:2:0
Bit depth                        : 8 bits
Scan type                        : Progressive
Compression mode                 : Lossy
Bits/(Pixel*Frame)               : 0.246
Stream size                      : 964 MiB (69%)
Writing library                  : XviD 64

Audio
ID                               : 1
Format                           : AC-3
Format/Info                      : Audio Coding 3
Mode extension                   : CM (complete main)
Codec ID                         : 2000
Duration                         : 2h 11mn
Bit rate mode                    : Constant
Bit rate                         : 448 Kbps
Channel(s)                       : 6 channels
Channel positions                : Front: L C R, Side: L R, LFE
Sampling rate                    : 48.0 KHz
Bit depth                        : 16 bits
Compression mode                 : Lossy
Stream size                      : 421 MiB (30%)
Alignment                        : Split accross interleaves
Interleave, duration             : 42 ms (1.00 video frame)
Interleave, preload duration     : 500 ms
 
http://www.imdb.com/title/tt1440129/

Notes:
Video has hardcoded english subtitles for the odd line of
non-english speaking. I'll do a larger file release when
I have the full Bluray. But until then - Enjoy! :)

[img]http://img7.imageshack.us/img7/3502/vlcsnap2012080312h25m49.png[/img]
[img]http://img40.imageshack.us/img40/562/vlcsnap2012080312h26m39.png[/img]
[img]http://img534.imageshack.us/img534/1029/vlcsnap2012080312h28m46.png[/img]
[img]http://img28.imageshack.us/img28/2909/vlcsnap2012080312h21m49.png[/img]
[img]http://img442.imageshack.us/img442/8245/vlcsnap2012080312h21m09.png[/img]
[img]http://img4.imageshack.us/img4/4959/vlcsnap2012080312h20m52.png[/img]

DiSTURBED...